<svg xmlns="http://www.w3.org/2000/svg" xmlns:xlink="http://www.w3.org/1999/xlink" width="500" zoomAndPan="magnify" viewBox="0 0 375 374.999991" height="500" preserveAspectRatio="xMidYMid meet" version="1.0"><defs><g/><clipPath id="4e1139cef2"><path d="M 302.914062 76.578125 L 325.414062 76.578125 L 325.414062 99.078125 L 302.914062 99.078125 Z M 302.914062 76.578125 " clip-rule="nonzero"/></clipPath><clipPath id="afbf1e55d9"><path d="M 314.164062 76.578125 C 307.949219 76.578125 302.914062 81.613281 302.914062 87.828125 C 302.914062 94.042969 307.949219 99.078125 314.164062 99.078125 C 320.378906 99.078125 325.414062 94.042969 325.414062 87.828125 C 325.414062 81.613281 320.378906 76.578125 314.164062 76.578125 Z M 314.164062 76.578125 " clip-rule="nonzero"/></clipPath></defs><g fill="#000000" fill-opacity="1"><g transform="translate(38.250002, 262.922042)"><g><path d="M 7.59375 -75.203125 C 7.59375 -89.066406 11.09375 -102 18.09375 -114 C 25.09375 -126 34.660156 -135.566406 46.796875 -142.703125 C 58.929688 -149.835938 72.066406 -153.40625 86.203125 -153.40625 C 100.203125 -153.40625 113.234375 -149.9375 125.296875 -143 C 137.367188 -136.0625 146.96875 -126.523438 154.09375 -114.390625 C 161.226562 -102.265625 164.796875 -89.203125 164.796875 -75.203125 C 164.796875 -61.335938 161.296875 -48.40625 154.296875 -36.40625 C 147.296875 -24.40625 137.757812 -14.90625 125.6875 -7.90625 C 113.625 -0.90625 100.460938 2.59375 86.203125 2.59375 C 72.203125 2.59375 59.132812 -0.867188 47 -7.796875 C 34.863281 -14.734375 25.257812 -24.234375 18.1875 -36.296875 C 11.125 -48.367188 7.59375 -61.335938 7.59375 -75.203125 Z M 86 -137.796875 C 74.800781 -137.796875 64.46875 -134.925781 55 -129.1875 C 45.53125 -123.457031 38.0625 -115.828125 32.59375 -106.296875 C 27.132812 -96.765625 24.40625 -86.46875 24.40625 -75.40625 C 24.40625 -64.332031 27.203125 -53.992188 32.796875 -44.390625 C 38.398438 -34.796875 45.96875 -27.164062 55.5 -21.5 C 65.03125 -15.832031 75.265625 -13 86.203125 -13 C 97.265625 -13 107.628906 -15.863281 117.296875 -21.59375 C 126.960938 -27.332031 134.492188 -35 139.890625 -44.59375 C 145.296875 -54.195312 148 -64.46875 148 -75.40625 C 148 -86.601562 145.234375 -97.035156 139.703125 -106.703125 C 134.171875 -116.367188 126.632812 -123.96875 117.09375 -129.5 C 107.5625 -135.03125 97.195312 -137.796875 86 -137.796875 Z M 86 -137.796875 "/></g></g></g><g fill="#000000" fill-opacity="1"><g transform="translate(193.445369, 262.922042)"><g><path d="M 41 -150.796875 C 56.863281 -150.796875 69.0625 -147.296875 77.59375 -140.296875 C 86.132812 -133.296875 90.40625 -123.195312 90.40625 -110 C 90.40625 -103.863281 89.238281 -98.296875 86.90625 -93.296875 C 84.570312 -88.296875 80.800781 -84.0625 75.59375 -80.59375 C 84 -78.46875 90.867188 -73.835938 96.203125 -66.703125 C 101.535156 -59.566406 104.203125 -51.265625 104.203125 -41.796875 C 104.203125 -28.734375 99.5 -18.5 90.09375 -11.09375 C 80.695312 -3.695312 67.734375 0 51.203125 0 L 15.203125 0 L 15.203125 -150.796875 Z M 32 -84.40625 L 39.796875 -84.40625 C 49.535156 -84.40625 56.632812 -85.40625 61.09375 -87.40625 C 65.5625 -89.40625 68.757812 -92.238281 70.6875 -95.90625 C 72.625 -99.570312 73.59375 -104.269531 73.59375 -110 C 73.59375 -118.9375 71.289062 -125.367188 66.6875 -129.296875 C 62.09375 -133.234375 53.0625 -135.203125 39.59375 -135.203125 L 32 -135.203125 Z M 49.796875 -15.59375 C 62.203125 -15.59375 71.570312 -17.894531 77.90625 -22.5 C 84.238281 -27.101562 87.40625 -34.003906 87.40625 -43.203125 C 87.40625 -52.003906 84.132812 -58.671875 77.59375 -63.203125 C 71.0625 -67.734375 61.0625 -70 47.59375 -70 L 32 -70 L 32 -15.59375 Z M 49.796875 -15.59375 "/></g></g></g><g fill="#000000" fill-opacity="1"><g transform="translate(289.842324, 262.922042)"><g><path d="M 32.40625 -150.796875 L 32.40625 0 L 15.59375 0 L 15.59375 -150.796875 Z M 32.40625 -150.796875 "/></g></g></g><g clip-path="url(#4e1139cef2)"><g clip-path="url(#afbf1e55d9)"><path fill="#ff0000" d="M 302.914062 76.578125 L 325.414062 76.578125 L 325.414062 99.078125 L 302.914062 99.078125 Z M 302.914062 76.578125 " fill-opacity="1" fill-rule="nonzero"/></g></g></svg>